HIERARCHY
ROOT pelvis
{
  OFFSET 0 100 0
  CHANNELS 6 Xposition Yposition Zposition Zrotation Xrotation Yrotation
  JOINT pelvis_right_femur
  {
    OFFSET -10.78128 -3.44521 -0.5502486
    CHANNELS 3 Zrotation Xrotation Yrotation
    JOINT right_femur_tibia
    {
      OFFSET -0.8047443 -44.0398 -0.1307829
      CHANNELS 3 Zrotation Xrotation Yrotation
      JOINT right_tibia_foot
      {
        OFFSET 3.006224 -47.83518 -5
        CHANNELS 3 Zrotation Xrotation Yrotation
        End Site
        {
          OFFSET 0 -5 15
        }
      }
    }
  }
  JOINT pelvis_left_femur
  {
    OFFSET 10.78128 -3.44521 -0.5502486
    CHANNELS 3 Zrotation Xrotation Yrotation
    JOINT left_femur_tibia
    {
      OFFSET 0.8047443 -44.0398 -0.1307829
      CHANNELS 3 Zrotation Xrotation Yrotation
      JOINT left_tibia_foot
      {
        OFFSET -4.370144 -48.10324 -4.275266
        CHANNELS 3 Zrotation Xrotation Yrotation
        End Site
        {
          OFFSET 0 -5 15
        }
      }
    }
  }
  JOINT pelvis_spine1
  {
    OFFSET 0 6.468898 -3.129235
    CHANNELS 3 Zrotation Xrotation Yrotation
    JOINT spine1
    {
      OFFSET 0 23.15396 4.99043
      CHANNELS 3 Zrotation Xrotation Yrotation
      JOINT spine2
      {
        OFFSET 0 20.79997 -5.064912
        CHANNELS 3 Zrotation Xrotation Yrotation
        JOINT neck
        {
          OFFSET 0 14.38658 9.616178
          CHANNELS 3 Zrotation Xrotation Yrotation
          End Site
          {
            OFFSET 0 20 0
          }
        }
      }
      JOINT right_manubrium
      {
        OFFSET -5.722621 16.35077 3.967754
        CHANNELS 3 Zrotation Xrotation Yrotation
        JOINT right_clavicle
        {
          OFFSET -13.16364 1.694482 -4.693211
          CHANNELS 3 Zrotation Xrotation Yrotation
          JOINT right_humerus
          {
            OFFSET -28.5034 -0.3100689 -2.792744
            CHANNELS 3 Zrotation Xrotation Yrotation
            JOINT right_radius
            {
              OFFSET -25.15693 0.02248979 -1.271978
              CHANNELS 3 Zrotation Xrotation Yrotation
              End Site
              {
                OFFSET -15 0 0
              }
            }
          }
        }
      }
      JOINT left_manubrium
      {
        OFFSET 5.722621 16.35077 3.967754
        CHANNELS 3 Zrotation Xrotation Yrotation
        JOINT left_clavicle
        {
          OFFSET 13.16364 1.694482 -4.693211
          CHANNELS 3 Zrotation Xrotation Yrotation
          JOINT left_humerus
          {
            OFFSET 29.39168 -1.063119 -2.237045
            CHANNELS 3 Zrotation Xrotation Yrotation
            JOINT left_radius
            {
              OFFSET 24.59957 -0.9528479 0.9047498
              CHANNELS 3 Zrotation Xrotation Yrotation
              End Site
              {
                OFFSET 15 -0 -0
              }
            }
          }
        }
      }
    }
  }
}
MOTION
Frames: 17
Frame Time: 0.0416666666667
883.7768 91.94556 3245.755 1.117275 -13.41201 -3.236465 1.139276 3.735595 7.874037 -0 40.61219 -0 15.71268 -10.9101 -8.253104 -2.908928 -7.196745 -6.840349 -0 30.83678 -0 -10.91006 -11.50486 17.85874 -0.3337256 2.094402 7.740594 -3.329776 9.459719 -1.284603 4.415408 22.11222 6.063163 0.8666553 -9.05178 11.11161 1.474041 -16.29897 9.813495 83.5932 17.87523 -7.703395 -0 0 24.5994 -29.80545 20.80217 12.22667 6.649588 -13.33542 -4.202699 -88.83917 18.82939 16.10615 0 0 -10.28962 -0.9189172 5.791172 12.87057
884.3434 92.01676 3252.847 1.184846 -13.56395 -2.989581 1.207561 2.658781 7.880906 -0 40.18457 -0 15.8725 -10.78639 -8.539539 -2.993493 -6.047326 -6.835327 -0 31.2152 -0 -10.88467 -11.61906 17.83761 -0.3260472 2.13094 7.5981 -3.323254 9.516766 -1.368606 4.451138 22.09975 6.061465 0.8671087 -8.742308 11.13758 1.500463 -15.971 9.784286 83.86509 17.88561 -8.061253 -0 0 24.18937 -29.74906 20.95227 12.1015 6.82611 -13.53297 -4.282086 -88.39458 18.35881 15.20862 0 0 -10.6335 -0.4977427 5.755849 12.19446
884.8937 92.08418 3259.965 1.230962 -13.70298 -2.783875 1.31919 1.735555 7.949011 -0 39.44645 -0 16.02068 -10.70425 -8.785568 -3.028897 -5.058923 -6.790968 -0 31.79361 -0 -10.83747 -11.64784 17.88047 -0.2969473 2.154009 7.494402 -3.305322 9.610369 -1.445078 4.490856 22.06346 6.050353 0.8733327 -8.474749 11.15277 1.518373 -15.69822 9.783617 84.11566 17.87457 -8.408398 -0 0 23.81819 -29.70011 21.10325 11.98222 6.990619 -13.74414 -4.358308 -88.00486 17.84835 14.39885 0 0 -10.9967 -0.07306273 5.695511 11.51496
885.4229 92.15122 3267.11 1.248716 -13.8244 -2.641825 1.471622 1.04297 8.081957 -0 38.49612 -0 16.14418 -10.65175 -8.978427 -3.015659 -4.303188 -6.713642 -0 32.57484 -0 -10.77143 -11.58072 17.99111 -0.2461918 2.160244 7.439038 -3.278209 9.740156 -1.50818 4.532077 22.00561 6.029633 0.8853818 -8.272568 11.15495 1.52859 -15.50418 9.813959 84.33257 17.83743 -8.72465 -0 0 23.51049 -29.6563 21.24071 11.8731 7.126667 -13.95429 -4.426702 -87.70354 17.34322 13.74705 0 0 -11.34608 0.3177499 5.612447 10.89376
885.927 92.22484 3274.282 1.231591 -13.92484 -2.581774 1.658998 0.6401439 8.275733 -0 37.44155 -0 16.22984 -10.625 -9.10557 -2.954348 -3.842097 -6.61113 -0 33.53564 -0 -10.69487 -11.4155 18.16485 -0.1734214 2.150313 7.437367 -3.244535 9.901823 -1.552838 4.571666 21.93134 6.000914 0.9020176 -8.154883 11.14426 1.531087 -15.40865 9.875399 84.50383 17.77055 -8.989604 -0 0 23.29078 -29.61768 21.35195 11.78012 7.219203 -14.14801 -4.483532 -87.51676 16.89374 13.313 0 0 -11.65048 0.6357493 5.513075 10.39381
886.4028 92.31201 3281.471 1.175341 -14.00072 -2.616063 1.870045 0.5616888 8.516486 -0 36.38139 -0 16.26606 -10.63021 -9.154839 -2.846025 -3.722441 -6.491697 -0 34.61687 -0 -10.62016 -11.16164 18.38723 -0.07979037 2.128735 7.489938 -3.207122 10.08558 -1.575044 4.606103 21.84834 5.967618 0.9210302 -8.13381 11.12314 1.524656 -15.42449 9.964854 84.61742 17.67421 -9.183082 -0 0 23.1812 -29.58813 21.42777 11.71139 7.257228 -14.31027 -4.525878 -87.46038 16.54834 13.13857 0 0 -11.88509 0.8458037 5.407959 10.07029
886.8492 92.41576 3288.663 1.079858 -14.04715 -2.749285 2.087635 0.8128528 8.780719 -0 35.39167 -0 16.24509 -10.68116 -9.116291 -2.693371 -3.968856 -6.36304 -0 35.72121 -0 -10.5605 -10.84186 18.63517 0.03052528 2.102595 7.592309 -3.168891 10.27597 -1.572207 4.631932 21.76564 5.934391 0.9397218 -8.21254 11.09573 1.507144 -15.55498 10.07582 84.66204 17.55434 -9.286547 -0 0 23.19836 -29.57505 21.4637 11.67638 7.236146 -14.42776 -4.551454 -87.53839 16.34524 13.24176 0 0 -12.03461 0.9228394 5.310115 9.96093
887.2669 92.53229 3295.845 0.9502541 -14.0578 -2.977086 2.290754 1.367916 9.038624 -0 34.52173 -0 16.16568 -10.79335 -8.985325 -2.501997 -4.57646 -6.23155 -0 36.7221 -0 -10.52608 -10.49022 18.88062 0.1497358 2.079357 7.735291 -3.132716 10.45338 -1.543605 4.646285 21.69186 5.906018 0.9553578 -8.384541 11.06679 1.476328 -15.79203 10.19879 84.62894 17.42221 -9.285494 -0 0 23.34961 -29.58703 21.46003 11.68383 7.158999 -14.49022 -4.55845 -87.74272 16.30473 13.61343 0 0 -12.09403 0.8573409 5.232026 10.07803
887.6585 92.65032 3303 0.7966553 -14.02628 -3.286085 2.458355 2.173162 9.25988 -0 33.79951 -0 16.03504 -10.97715 -8.765926 -2.281486 -5.505448 -6.102427 -0 37.48507 -0 -10.52111 -10.14626 19.09578 0.2671389 2.064461 7.90569 -3.101166 10.59719 -1.490858 4.647376 21.6336 5.886191 0.9655359 -8.634025 11.04048 1.431246 -16.11608 10.32228 84.51437 17.29216 -9.17249 -0 0 23.62987 -29.63037 21.42083 11.73899 7.035982 -14.49142 -4.545567 -88.05434 16.42509 14.21772 0 0 -12.06648 0.6580528 5.182538 10.40504
888.0286 92.75329 3310.122 0.6327147 -13.94874 -3.655227 2.573413 3.154417 9.41994 -0 33.24286 -0 15.86861 -11.23201 -8.472567 -2.045925 -6.680558 -5.980821 -0 37.89721 -0 -10.54319 -9.846826 19.25845 0.3708398 2.059619 8.087694 -3.076216 10.68963 -1.418167 4.634836 21.59448 5.876648 0.9685766 -8.93761 11.01948 1.373512 -16.49777 10.43428 84.32178 17.17842 -8.950168 -0 0 24.01986 -29.70579 21.35235 11.8411 6.882246 -14.4298 -4.512359 -88.4453 16.68386 14.9964 0 0 -11.95956 0.350417 5.164985 10.89963
888.383 92.82378 3317.207 0.4734247 -13.82658 -4.058443 2.625506 4.227219 9.50451 -0 32.87037 -0 15.68735 -11.54305 -8.129708 -1.813802 -7.99746 -5.873439 -0 37.89592 -0 -10.58511 -9.618906 19.35561 0.4497515 2.062509 8.264926 -3.059111 10.71936 -1.33205 4.609841 21.57533 5.877027 0.9639854 -9.267084 11.00455 1.307955 -16.90138 10.52393 84.06326 17.09246 -8.633209 -0 0 24.48658 -29.80708 21.26132 11.98222 6.714713 -14.309 -4.459814 -88.88169 17.04444 15.87665 0 0 -11.78237 -0.02902641 5.177239 11.50284
888.7277 92.84877 3324.261 0.3329377 -13.66805 -4.46791 2.61133 5.306591 9.510874 -0 32.7064 -0 15.51303 -11.88091 -7.768895 -1.607 -9.335586 -5.789506 -0 37.48591 -0 -10.63763 -9.476218 19.38431 0.4952109 2.067939 8.422753 -3.050485 10.68363 -1.240503 4.574999 21.57506 5.885407 0.9528024 -9.592951 10.99481 1.242133 -17.28946 10.58291 83.75948 17.04183 -8.248365 -0 0 24.98651 -29.92207 21.1541 12.14793 6.549037 -14.13806 -4.390908 -89.32727 17.46508 16.78065 0 0 -11.54492 -0.4401727 5.213443 12.15109
889.0685 92.82368 3331.294 0.2228191 -13.48778 -4.857069 2.533857 6.314004 9.446292 -0 32.77843 -0 15.36345 -12.20499 -7.424401 -1.44843 -10.57426 -5.74006 -0 36.7376 -0 -10.69206 -9.420399 19.35011 0.5020195 2.069952 8.550081 -3.050661 10.58857 -1.151816 4.534018 21.59176 5.8992 0.9375124 -9.888076 10.98854 1.184771 -17.62771 10.60656 83.43804 17.0302 -7.831919 -0 0 25.47111 -30.03553 21.03665 12.31974 6.397663 -13.93123 -4.310761 -89.74707 17.90678 17.63481 0 0 -11.2597 -0.8460218 5.266458 12.78673
889.4101 92.754 3338.318 0.1507903 -13.30465 -5.202804 2.401261 7.181062 9.3247 -0 33.1085 -0 15.24946 -12.47028 -7.128662 -1.358217 -11.60781 -5.735405 -0 35.76752 -0 -10.7418 -9.44501 19.26399 0.4690922 2.064064 8.639956 -3.059886 10.44755 -1.073423 4.491159 21.6234 5.915948 0.9213582 -10.13053 10.98415 1.143726 -17.88901 10.59425 83.13007 17.05764 -7.424775 -0 0 25.89367 -30.13273 20.91528 12.47851 6.269314 -13.70682 -4.22626 -90.1105 18.33752 18.37654 0 0 -10.94363 -1.216601 5.329926 13.36419
889.7562 92.65397 3345.345 0.1199368 -13.13867 -5.486678 2.226137 7.851089 9.163097 -0 33.70272 -0 15.17476 -12.63681 -6.908383 -1.349212 -12.35647 -5.78161 -0 34.70862 -0 -10.78317 -9.539812 19.13911 0.3998261 2.048913 8.688985 -3.078296 10.27829 -1.011101 4.450592 21.66795 5.933819 0.9072785 -10.30495 10.98096 1.124219 -18.05574 10.54924 82.86597 17.12056 -7.066267 -0 0 26.21606 -30.20228 20.7972 12.60772 6.169562 -13.48505 -4.145223 -90.3932 18.73276 18.95776 0 0 -10.61847 -1.529949 5.399193 13.85102
890.1089 92.5431 3352.381 0.1285266 -13.00778 -5.69545 2.024691 8.280305 8.978498 -0 34.54177 -0 15.138 -12.67919 -6.781677 -1.423459 -12.7718 -5.877653 -0 33.68121 -0 -10.81547 -9.693521 18.98824 0.3019789 2.026837 8.696199 -3.105591 10.09954 -0.9686488 4.415793 21.72311 5.951739 0.8969595 -10.40257 10.9795 1.127885 -18.12042 10.47774 82.67092 17.21145 -6.788372 -0 0 26.41372 -30.2378 20.69061 12.69585 6.101851 -13.2853 -4.075348 -90.57785 19.07368 19.34554 0 0 -10.30926 -1.771189 5.471008 14.2258
890.4693 92.44151 3359.429 0.1706665 -12.92518 -5.821264 1.815312 8.439568 8.785843 -0 35.57524 -0 15.13579 -12.59329 -6.756383 -1.571211 -12.8372 -6.014554 -0 32.7734 -0 -10.84048 -9.8947 18.82238 0.1867167 2.003228 8.662188 -3.140582 9.927991 -0.9479722 4.389152 21.78598 5.969287 0.8904451 -10.42026 10.98128 1.152766 -18.08467 10.3877 82.5614 17.31946 -6.611823 -0 0 26.47768 -30.23824 20.60397 12.73752 6.068365 -13.12367 -4.02319 -90.65418 19.34499 19.52113 0 0 -10.04135 -1.930903 5.542605 14.47478
